<svg width="2310" height="2310" xmlns="http://www.w3.org/2000/svg" color-interpolation="auto" stroke="#000" stroke-linecap="square" stroke-miterlimit="10" font-weight="400" font-family="Dialog" font-size="12"><g stroke-linecap="round"><circle r="1155" cx="1155" cy="1155" stroke="none" fill="#fff"/><g fill="#b40a0a" fill-opacity=".42" stroke-opacity=".42" stroke="none"><path d="M0 1155a1155 1155 0 012310 0H1155z"/><path d="M2310 1155a1155 1155 0 01-2310 0h1155z" fill="#1b86a0"/><path d="M2310 1155a1155 1155 0 01-2310 0h1155z" fill="#1b86a0"/><path d="M0 1155a770 770 0 011540 0H770z"/><path d="M2310 1155a770 770 0 01-1540 0h770z" fill="#1b86a0"/><path d="M1540 1155a770 770 0 01-1540 0h770z" fill="#1b86a0"/><path d="M0 1155a385 385 0 01770 0H385z"/><path d="M2310 1155a385 385 0 01-770 0h385zM770 1155a385 385 0 01-770 0h385z" fill="#1b86a0"/></g></g></svg>